<mxfile host="Electron" modified="2024-01-21T20:47:41.781Z" agent="Mozilla/5.0 (Windows NT 10.0; Win64; x64) AppleWebKit/537.36 (KHTML, like Gecko) draw.io/22.1.21 Chrome/120.0.6099.109 Electron/28.1.0 Safari/537.36" etag="JU1RefOtSQc0lg5toNiy" version="22.1.21" type="device">
  <diagram id="prtHgNgQTEPvFCAcTncT" name="Page-1">
    <mxGraphModel dx="1518" dy="731" grid="1" gridSize="10" guides="1" tooltips="1" connect="1" arrows="1" fold="1" page="1" pageScale="1" pageWidth="827" pageHeight="1169" math="0" shadow="0">
      <root>
        <mxCell id="0" />
        <mxCell id="1" parent="0" />
        <mxCell id="KnwpnGPcHwYVcm_QrmpZ-1" value="Request queue" style="outlineConnect=0;dashed=0;verticalLabelPosition=bottom;verticalAlign=top;align=center;html=1;shape=mxgraph.aws3.queue;fillColor=#D9A741;gradientColor=none;" vertex="1" parent="1">
          <mxGeometry x="296.25" y="232" width="73.5" height="48" as="geometry" />
        </mxCell>
        <mxCell id="KnwpnGPcHwYVcm_QrmpZ-22" value="" style="edgeStyle=orthogonalEdgeStyle;rounded=0;orthogonalLoop=1;jettySize=auto;html=1;" edge="1" parent="1" source="KnwpnGPcHwYVcm_QrmpZ-2" target="KnwpnGPcHwYVcm_QrmpZ-21">
          <mxGeometry relative="1" as="geometry" />
        </mxCell>
        <mxCell id="KnwpnGPcHwYVcm_QrmpZ-2" value="" style="outlineConnect=0;dashed=0;verticalLabelPosition=bottom;verticalAlign=top;align=center;html=1;shape=mxgraph.aws3.queue;fillColor=#D9A741;gradientColor=none;rotation=-180;" vertex="1" parent="1">
          <mxGeometry x="296.25" y="350" width="73.5" height="48" as="geometry" />
        </mxCell>
        <mxCell id="KnwpnGPcHwYVcm_QrmpZ-4" value="Response queue" style="text;html=1;align=center;verticalAlign=middle;resizable=0;points=[];autosize=1;strokeColor=none;fillColor=none;" vertex="1" parent="1">
          <mxGeometry x="278" y="398" width="110" height="30" as="geometry" />
        </mxCell>
        <mxCell id="KnwpnGPcHwYVcm_QrmpZ-5" value="BlackBox" style="verticalLabelPosition=bottom;verticalAlign=top;html=1;shape=mxgraph.basic.polygon;polyCoords=[[0.25,0],[0.75,0],[1,0.25],[1,0.75],[0.75,1],[0.25,1],[0,0.75],[0,0.25]];polyline=0;" vertex="1" parent="1">
          <mxGeometry x="678" y="280" width="100" height="100" as="geometry" />
        </mxCell>
        <mxCell id="KnwpnGPcHwYVcm_QrmpZ-10" value="AsyncCommunicator" style="rounded=1;whiteSpace=wrap;html=1;" vertex="1" parent="1">
          <mxGeometry x="458" y="300" width="120" height="60" as="geometry" />
        </mxCell>
        <mxCell id="KnwpnGPcHwYVcm_QrmpZ-13" value="" style="endArrow=classic;html=1;rounded=0;exitX=1;exitY=0.25;exitDx=0;exitDy=0;entryX=0.02;entryY=0.296;entryDx=0;entryDy=0;entryPerimeter=0;" edge="1" parent="1" source="KnwpnGPcHwYVcm_QrmpZ-10" target="KnwpnGPcHwYVcm_QrmpZ-5">
          <mxGeometry width="50" height="50" relative="1" as="geometry">
            <mxPoint x="628" y="210" as="sourcePoint" />
            <mxPoint x="678" y="160" as="targetPoint" />
          </mxGeometry>
        </mxCell>
        <mxCell id="KnwpnGPcHwYVcm_QrmpZ-14" value="" style="endArrow=classic;html=1;rounded=0;exitX=0.004;exitY=0.76;exitDx=0;exitDy=0;entryX=0.987;entryY=0.867;entryDx=0;entryDy=0;entryPerimeter=0;exitPerimeter=0;" edge="1" parent="1" source="KnwpnGPcHwYVcm_QrmpZ-5" target="KnwpnGPcHwYVcm_QrmpZ-10">
          <mxGeometry width="50" height="50" relative="1" as="geometry">
            <mxPoint x="578" y="110" as="sourcePoint" />
            <mxPoint x="786" y="146" as="targetPoint" />
          </mxGeometry>
        </mxCell>
        <mxCell id="KnwpnGPcHwYVcm_QrmpZ-15" value="" style="endArrow=classic;html=1;rounded=0;exitX=1;exitY=0.5;exitDx=0;exitDy=0;exitPerimeter=0;entryX=0;entryY=0.25;entryDx=0;entryDy=0;" edge="1" parent="1" source="KnwpnGPcHwYVcm_QrmpZ-1" target="KnwpnGPcHwYVcm_QrmpZ-10">
          <mxGeometry width="50" height="50" relative="1" as="geometry">
            <mxPoint x="438" y="210" as="sourcePoint" />
            <mxPoint x="488" y="160" as="targetPoint" />
          </mxGeometry>
        </mxCell>
        <mxCell id="KnwpnGPcHwYVcm_QrmpZ-16" value="" style="endArrow=classic;html=1;rounded=0;exitX=0;exitY=0.75;exitDx=0;exitDy=0;entryX=0;entryY=0.5;entryDx=0;entryDy=0;entryPerimeter=0;" edge="1" parent="1" source="KnwpnGPcHwYVcm_QrmpZ-10" target="KnwpnGPcHwYVcm_QrmpZ-2">
          <mxGeometry width="50" height="50" relative="1" as="geometry">
            <mxPoint x="448" y="420" as="sourcePoint" />
            <mxPoint x="536" y="491" as="targetPoint" />
          </mxGeometry>
        </mxCell>
        <mxCell id="KnwpnGPcHwYVcm_QrmpZ-17" value="Output pipe" style="text;html=1;align=center;verticalAlign=middle;resizable=0;points=[];autosize=1;strokeColor=none;fillColor=none;" vertex="1" parent="1">
          <mxGeometry x="583" y="280" width="90" height="30" as="geometry" />
        </mxCell>
        <mxCell id="KnwpnGPcHwYVcm_QrmpZ-18" value="Input pipe" style="text;html=1;align=center;verticalAlign=middle;resizable=0;points=[];autosize=1;strokeColor=none;fillColor=none;" vertex="1" parent="1">
          <mxGeometry x="588" y="359" width="80" height="30" as="geometry" />
        </mxCell>
        <mxCell id="KnwpnGPcHwYVcm_QrmpZ-19" value="Request" style="text;html=1;align=center;verticalAlign=middle;resizable=0;points=[];autosize=1;strokeColor=none;fillColor=none;" vertex="1" parent="1">
          <mxGeometry x="398" y="250" width="70" height="30" as="geometry" />
        </mxCell>
        <mxCell id="KnwpnGPcHwYVcm_QrmpZ-20" value="Response" style="text;html=1;align=center;verticalAlign=middle;resizable=0;points=[];autosize=1;strokeColor=none;fillColor=none;" vertex="1" parent="1">
          <mxGeometry x="388" y="368" width="80" height="30" as="geometry" />
        </mxCell>
        <mxCell id="KnwpnGPcHwYVcm_QrmpZ-21" value="ResponseManager" style="rounded=1;whiteSpace=wrap;html=1;" vertex="1" parent="1">
          <mxGeometry x="128" y="344" width="120" height="60" as="geometry" />
        </mxCell>
        <mxCell id="KnwpnGPcHwYVcm_QrmpZ-23" value="" style="endArrow=classic;html=1;rounded=0;entryX=0;entryY=0;entryDx=0;entryDy=0;entryPerimeter=0;" edge="1" parent="1" target="KnwpnGPcHwYVcm_QrmpZ-1">
          <mxGeometry width="50" height="50" relative="1" as="geometry">
            <mxPoint x="168" y="200" as="sourcePoint" />
            <mxPoint x="188" y="170" as="targetPoint" />
          </mxGeometry>
        </mxCell>
        <mxCell id="KnwpnGPcHwYVcm_QrmpZ-24" value="" style="endArrow=classic;html=1;rounded=0;entryX=0;entryY=0.5;entryDx=0;entryDy=0;entryPerimeter=0;" edge="1" parent="1" target="KnwpnGPcHwYVcm_QrmpZ-1">
          <mxGeometry width="50" height="50" relative="1" as="geometry">
            <mxPoint x="168" y="256" as="sourcePoint" />
            <mxPoint x="246" y="286" as="targetPoint" />
          </mxGeometry>
        </mxCell>
        <mxCell id="KnwpnGPcHwYVcm_QrmpZ-25" value="" style="endArrow=classic;html=1;rounded=0;entryX=0;entryY=1;entryDx=0;entryDy=0;entryPerimeter=0;" edge="1" parent="1" target="KnwpnGPcHwYVcm_QrmpZ-1">
          <mxGeometry width="50" height="50" relative="1" as="geometry">
            <mxPoint x="168" y="320" as="sourcePoint" />
            <mxPoint x="248" y="310" as="targetPoint" />
          </mxGeometry>
        </mxCell>
        <mxCell id="KnwpnGPcHwYVcm_QrmpZ-26" value="Request source 1" style="text;html=1;align=center;verticalAlign=middle;resizable=0;points=[];autosize=1;strokeColor=none;fillColor=none;" vertex="1" parent="1">
          <mxGeometry x="48" y="180" width="120" height="30" as="geometry" />
        </mxCell>
        <mxCell id="KnwpnGPcHwYVcm_QrmpZ-27" value="Request source 2" style="text;html=1;align=center;verticalAlign=middle;resizable=0;points=[];autosize=1;strokeColor=none;fillColor=none;" vertex="1" parent="1">
          <mxGeometry x="48" y="241" width="120" height="30" as="geometry" />
        </mxCell>
        <mxCell id="KnwpnGPcHwYVcm_QrmpZ-28" value="Request source 3" style="text;html=1;align=center;verticalAlign=middle;resizable=0;points=[];autosize=1;strokeColor=none;fillColor=none;" vertex="1" parent="1">
          <mxGeometry x="48" y="300" width="120" height="30" as="geometry" />
        </mxCell>
      </root>
    </mxGraphModel>
  </diagram>
</mxfile>
